<svg id="Layer_1" data-name="Layer 1" xmlns="http://www.w3.org/2000/svg" width="329" height="105" viewBox="0 0 329 105"><defs><style>.cls-1{fill:#ff94ee;}</style></defs><title>Artboard 2</title><path class="cls-1" d="M35.7832,100.3965a24.9819,24.9819,0,0,1-13.396-3.74,28.69,28.69,0,0,1-9.7241-9.9282,26.2821,26.2821,0,0,1-3.6719-13.668L9.127,29.9487a26.2989,26.2989,0,0,1,3.604-13.6,27.5519,27.5519,0,0,1,9.7241-9.792A25.43,25.43,0,0,1,35.7832,2.8848,24.9813,24.9813,0,0,1,49.1113,6.5566a27.9512,27.9512,0,0,1,9.5879,9.792,26.318,26.318,0,0,1,3.604,13.6l.1358,43.1118a26.6739,26.6739,0,0,1-3.604,13.668,28.1355,28.1355,0,0,1-9.6558,9.9282A24.9879,24.9879,0,0,1,35.7832,100.3965Zm0-16.4561a9.4137,9.4137,0,0,0,7.14-3.332,10.8593,10.8593,0,0,0,3.06-7.5479l-.1357-43.1118a10.891,10.891,0,0,0-2.856-7.6162,9.3462,9.3462,0,0,0-7.208-3.1279,9.7129,9.7129,0,0,0-7.208,3.06,10.5451,10.5451,0,0,0-2.9922,7.6841V73.0605a10.8393,10.8393,0,0,0,2.9922,7.6841A9.5149,9.5149,0,0,0,35.7832,83.94Z"/><path class="cls-1" d="M73.3169,99.0366c-.3633,0-.544-.2251-.544-.68l.272-93.4316a.4814.4814,0,0,1,.544-.5444H90.1812a1.1815,1.1815,0,0,1,.9516.5444l12.376,17.9517,12.376-17.9517a1.18,1.18,0,0,1,.9521-.5444h16.728a.4822.4822,0,0,1,.544.5444l.272,93.4316c0,.4551-.1827.68-.544.68H118.4692c-.3637,0-.5444-.2251-.5444-.68l-.1357-69.36-14.28,20.6719L89.3652,28.9966l-.1362,69.36c0,.4551-.1826.68-.5439.68Z"/><path class="cls-1" d="M166.4746,99.0366c-.3633,0-.5439-.2251-.5439-.68l.2719-93.4316a.4814.4814,0,0,1,.544-.5444h16.5923a1.1814,1.1814,0,0,1,.9516.5444l12.376,17.9517,12.376-17.9517a1.18,1.18,0,0,1,.9521-.5444h16.7281a.4821.4821,0,0,1,.5439.5444l.272,93.4316c0,.4551-.1826.68-.544.68H211.627c-.3638,0-.5445-.2251-.5445-.68l-.1357-69.36-14.28,20.6719L182.5229,28.9966l-.1362,69.36c0,.4551-.1826.68-.5439.68Z"/><path class="cls-1" d="M239.6411,99.0366a.6.6,0,0,1-.68-.68l.1363-93.4316a.4813.4813,0,0,1,.5439-.5444H254.873a.4822.4822,0,0,1,.544.5444l.1362,93.4316c0,.4551-.1831.68-.5444.68Z"/><path class="cls-1" d="M292.4082,100.3965A24.9743,24.9743,0,0,1,279.08,96.7246a27.7286,27.7286,0,0,1-9.5879-9.86,26.9113,26.9113,0,0,1-3.604-13.8042V29.9487a26.4092,26.4092,0,0,1,3.604-13.5322,27.5641,27.5641,0,0,1,9.6557-9.86,25.0757,25.0757,0,0,1,13.26-3.6718A25.9573,25.9573,0,0,1,305.94,6.4888a26.6821,26.6821,0,0,1,9.5884,9.7236,26.9658,26.9658,0,0,1,3.5357,13.7363v6.2559c0,.3633-.2271.5439-.68.5439H303.1519a.48.48,0,0,1-.544-.5439v-5.168a12.6785,12.6785,0,0,0-2.9238-8.5678,9.22,9.22,0,0,0-7.2759-3.4,9.3623,9.3623,0,0,0-7.0039,3.2637,10.7871,10.7871,0,0,0-3.06,7.6162V73.0605a10.841,10.841,0,0,0,2.9917,7.6841,9.373,9.373,0,0,0,7.0723,3.1958,9.55,9.55,0,0,0,7.2759-3.1279,10.9188,10.9188,0,0,0,2.9238-7.752v-6.664h-9.52a.6.6,0,0,1-.68-.68V50.4849a.6007.6007,0,0,1,.68-.68H318.52c.3613,0,.544.2275.544.68V73.0605a26.9309,26.9309,0,0,1-3.604,13.8042,27.762,27.762,0,0,1-9.5879,9.86A25.2285,25.2285,0,0,1,292.4082,100.3965Z"/></svg>